<svg width="1081" height="1081" viewBox="0 0 1081 1081" fill="none" xmlns="http://www.w3.org/2000/svg">
<g clip-path="url(#clip0_2730_41)">
<g filter="url(#filter0_f_2730_41)">
<path d="M435.167 724.458C413.327 724.458 394.762 716.814 379.474 701.526C364.186 686.238 356.542 667.674 356.542 645.833C356.542 623.993 364.186 605.429 379.474 590.141C394.762 574.852 413.327 567.208 435.167 567.208C457.007 567.208 475.572 574.852 490.86 590.141C506.148 605.429 513.792 623.993 513.792 645.833C513.792 667.674 506.148 686.238 490.86 701.526C475.572 716.814 457.007 724.458 435.167 724.458ZM435.167 514.792C413.327 514.792 394.762 507.148 379.474 491.859C364.186 476.571 356.542 458.007 356.542 436.167C356.542 414.326 364.186 395.762 379.474 380.474C394.762 365.186 413.327 357.542 435.167 357.542C457.007 357.542 475.572 365.186 490.86 380.474C506.148 395.762 513.792 414.326 513.792 436.167C513.792 458.007 506.148 476.571 490.86 491.859C475.572 507.148 457.007 514.792 435.167 514.792ZM644.834 724.458C622.993 724.458 604.429 716.814 589.141 701.526C573.853 686.238 566.209 667.674 566.209 645.833C566.209 623.993 573.853 605.429 589.141 590.141C604.429 574.852 622.993 567.208 644.834 567.208C666.674 567.208 685.238 574.852 700.526 590.141C715.815 605.429 723.459 623.993 723.459 645.833C723.459 667.674 715.815 686.238 700.526 701.526C685.238 716.814 666.674 724.458 644.834 724.458ZM644.834 514.792C622.993 514.792 604.429 507.148 589.141 491.859C573.853 476.571 566.209 458.007 566.209 436.167C566.209 414.326 573.853 395.762 589.141 380.474C604.429 365.186 622.993 357.542 644.834 357.542C666.674 357.542 685.238 365.186 700.526 380.474C715.815 395.762 723.459 414.326 723.459 436.167C723.459 458.007 715.815 476.571 700.526 491.859C685.238 507.148 666.674 514.792 644.834 514.792Z" fill="#4A67B5"/>
</g>
<g filter="url(#filter1_dii_2730_41)">
<path d="M435.167 724.458C413.327 724.458 394.762 716.814 379.474 701.526C364.186 686.238 356.542 667.674 356.542 645.833C356.542 623.993 364.186 605.429 379.474 590.141C394.762 574.852 413.327 567.208 435.167 567.208C457.007 567.208 475.572 574.852 490.86 590.141C506.148 605.429 513.792 623.993 513.792 645.833C513.792 667.674 506.148 686.238 490.86 701.526C475.572 716.814 457.007 724.458 435.167 724.458ZM435.167 514.792C413.327 514.792 394.762 507.148 379.474 491.859C364.186 476.571 356.542 458.007 356.542 436.167C356.542 414.326 364.186 395.762 379.474 380.474C394.762 365.186 413.327 357.542 435.167 357.542C457.007 357.542 475.572 365.186 490.86 380.474C506.148 395.762 513.792 414.326 513.792 436.167C513.792 458.007 506.148 476.571 490.86 491.859C475.572 507.148 457.007 514.792 435.167 514.792ZM644.834 724.458C622.993 724.458 604.429 716.814 589.141 701.526C573.853 686.238 566.209 667.674 566.209 645.833C566.209 623.993 573.853 605.429 589.141 590.141C604.429 574.852 622.993 567.208 644.834 567.208C666.674 567.208 685.238 574.852 700.526 590.141C715.815 605.429 723.459 623.993 723.459 645.833C723.459 667.674 715.815 686.238 700.526 701.526C685.238 716.814 666.674 724.458 644.834 724.458ZM644.834 514.792C622.993 514.792 604.429 507.148 589.141 491.859C573.853 476.571 566.209 458.007 566.209 436.167C566.209 414.326 573.853 395.762 589.141 380.474C604.429 365.186 622.993 357.542 644.834 357.542C666.674 357.542 685.238 365.186 700.526 380.474C715.815 395.762 723.459 414.326 723.459 436.167C723.459 458.007 715.815 476.571 700.526 491.859C685.238 507.148 666.674 514.792 644.834 514.792Z" fill="#4A67B5" fill-opacity="0.5" shape-rendering="crispEdges"/>
</g>
<g filter="url(#filter2_f_2730_41)">
<path d="M540.358 -13.4518C540.358 222.993 540.362 358.458 583.487 436.071C668.862 411.685 764.653 315.9 931.845 148.708C764.653 315.9 668.867 411.69 644.481 497.065C722.093 540.19 857.559 540.194 1094 540.194C857.559 540.194 722.094 540.197 644.481 583.322C668.867 668.697 764.653 764.488 931.845 931.681C764.652 764.488 668.862 668.701 583.487 644.315C540.361 721.928 540.358 857.393 540.358 1093.84C540.358 857.394 540.355 721.929 497.229 644.316C411.855 668.703 316.065 764.488 148.872 931.681C316.065 764.488 411.849 668.697 436.236 583.322C358.623 540.197 223.158 540.194 -13.2871 540.194C223.159 540.194 358.623 540.19 436.236 497.065C411.849 411.69 316.064 315.9 148.872 148.708C316.064 315.9 411.855 411.684 497.229 436.071C540.355 358.458 540.358 222.994 540.358 -13.4518Z" fill="url(#paint0_linear_2730_41)"/>
</g>
<path d="M540.358 -13.4518C540.358 222.993 540.362 358.458 583.487 436.071C668.862 411.685 764.653 315.9 931.845 148.708C764.653 315.9 668.867 411.69 644.481 497.065C722.093 540.19 857.559 540.194 1094 540.194C857.559 540.194 722.094 540.197 644.481 583.322C668.867 668.697 764.653 764.488 931.845 931.681C764.652 764.488 668.862 668.701 583.487 644.315C540.361 721.928 540.358 857.393 540.358 1093.84C540.358 857.394 540.355 721.929 497.229 644.316C411.855 668.703 316.065 764.488 148.872 931.681C316.065 764.488 411.849 668.697 436.236 583.322C358.623 540.197 223.158 540.194 -13.2871 540.194C223.159 540.194 358.623 540.19 436.236 497.065C411.849 411.69 316.064 315.9 148.872 148.708C316.064 315.9 411.855 411.684 497.229 436.071C540.355 358.458 540.358 222.994 540.358 -13.4518Z" fill="url(#paint1_linear_2730_41)"/>
<g filter="url(#filter3_f_2730_41)">
<path d="M225.5 907.917C210.649 907.917 198.2 902.893 188.153 892.847C178.107 882.8 173.084 870.351 173.084 855.5C173.084 840.649 178.107 828.2 188.153 818.153C198.2 808.107 210.649 803.083 225.5 803.083C240.352 803.083 252.801 808.107 262.847 818.153C272.894 828.2 277.917 840.649 277.917 855.5C277.917 870.351 272.894 882.8 262.847 892.847C252.801 902.893 240.352 907.917 225.5 907.917ZM225.5 698.25C210.649 698.25 198.2 693.227 188.153 683.18C178.107 673.134 173.084 660.685 173.084 645.833C173.084 630.982 178.107 618.533 188.153 608.486C198.2 598.44 210.649 593.417 225.5 593.417C240.352 593.417 252.801 598.44 262.847 608.486C272.894 618.533 277.917 630.982 277.917 645.833C277.917 660.685 272.894 673.134 262.847 683.18C252.801 693.227 240.352 698.25 225.5 698.25ZM225.5 488.583C210.649 488.583 198.2 483.56 188.153 473.514C178.107 463.467 173.084 451.018 173.084 436.167C173.084 421.315 178.107 408.866 188.153 398.82C198.2 388.773 210.649 383.75 225.5 383.75C240.352 383.75 252.801 388.773 262.847 398.82C272.894 408.866 277.917 421.315 277.917 436.167C277.917 451.018 272.894 463.467 262.847 473.514C252.801 483.56 240.352 488.583 225.5 488.583ZM225.5 278.917C210.649 278.917 198.2 273.893 188.153 263.847C178.107 253.8 173.084 241.351 173.084 226.5C173.084 211.649 178.107 199.2 188.153 189.153C198.2 179.107 210.649 174.083 225.5 174.083C240.352 174.083 252.801 179.107 262.847 189.153C272.894 199.2 277.917 211.649 277.917 226.5C277.917 241.351 272.894 253.8 262.847 263.847C252.801 273.893 240.352 278.917 225.5 278.917ZM435.167 907.917C420.316 907.917 407.867 902.893 397.82 892.847C387.774 882.8 382.75 870.351 382.75 855.5C382.75 840.649 387.774 828.2 397.82 818.153C407.867 808.107 420.316 803.083 435.167 803.083C450.018 803.083 462.467 808.107 472.514 818.153C482.56 828.2 487.584 840.649 487.584 855.5C487.584 870.351 482.56 882.8 472.514 892.847C462.467 902.893 450.018 907.917 435.167 907.917ZM435.167 278.917C420.316 278.917 407.867 273.893 397.82 263.847C387.774 253.8 382.75 241.351 382.75 226.5C382.75 211.649 387.774 199.2 397.82 189.153C407.867 179.107 420.316 174.083 435.167 174.083C450.018 174.083 462.467 179.107 472.514 189.153C482.56 199.2 487.584 211.649 487.584 226.5C487.584 241.351 482.56 253.8 472.514 263.847C462.467 273.893 450.018 278.917 435.167 278.917ZM644.834 907.917C629.982 907.917 617.533 902.893 607.487 892.847C597.44 882.8 592.417 870.351 592.417 855.5C592.417 840.649 597.44 828.2 607.487 818.153C617.533 808.107 629.982 803.083 644.834 803.083C659.685 803.083 672.134 808.107 682.181 818.153C692.227 828.2 697.25 840.649 697.25 855.5C697.25 870.351 692.227 882.8 682.181 892.847C672.134 902.893 659.685 907.917 644.834 907.917ZM644.834 278.917C629.982 278.917 617.533 273.893 607.487 263.847C597.44 253.8 592.417 241.351 592.417 226.5C592.417 211.649 597.44 199.2 607.487 189.153C617.533 179.107 629.982 174.083 644.834 174.083C659.685 174.083 672.134 179.107 682.181 189.153C692.227 199.2 697.25 211.649 697.25 226.5C697.25 241.351 692.227 253.8 682.181 263.847C672.134 273.893 659.685 278.917 644.834 278.917ZM854.5 907.917C839.649 907.917 827.2 902.893 817.153 892.847C807.107 882.8 802.084 870.351 802.084 855.5C802.084 840.649 807.107 828.2 817.153 818.153C827.2 808.107 839.649 803.083 854.5 803.083C869.352 803.083 881.801 808.107 891.847 818.153C901.894 828.2 906.917 840.649 906.917 855.5C906.917 870.351 901.894 882.8 891.847 892.847C881.801 902.893 869.352 907.917 854.5 907.917ZM854.5 698.25C839.649 698.25 827.2 693.227 817.153 683.18C807.107 673.134 802.084 660.685 802.084 645.833C802.084 630.982 807.107 618.533 817.153 608.486C827.2 598.44 839.649 593.417 854.5 593.417C869.352 593.417 881.801 598.44 891.847 608.486C901.894 618.533 906.917 630.982 906.917 645.833C906.917 660.685 901.894 673.134 891.847 683.18C881.801 693.227 869.352 698.25 854.5 698.25ZM854.5 488.583C839.649 488.583 827.2 483.56 817.153 473.514C807.107 463.467 802.084 451.018 802.084 436.167C802.084 421.315 807.107 408.866 817.153 398.82C827.2 388.773 839.649 383.75 854.5 383.75C869.352 383.75 881.801 388.773 891.847 398.82C901.894 408.866 906.917 421.315 906.917 436.167C906.917 451.018 901.894 463.467 891.847 473.514C881.801 483.56 869.352 488.583 854.5 488.583ZM854.5 278.917C839.649 278.917 827.2 273.893 817.153 263.847C807.107 253.8 802.084 241.351 802.084 226.5C802.084 211.649 807.107 199.2 817.153 189.153C827.2 179.107 839.649 174.083 854.5 174.083C869.352 174.083 881.801 179.107 891.847 189.153C901.894 199.2 906.917 211.649 906.917 226.5C906.917 241.351 901.894 253.8 891.847 263.847C881.801 273.893 869.352 278.917 854.5 278.917Z" fill="#4A67B5"/>
<path d="M993.405 558.181C998.646 563.422 1004.76 566.043 1011.75 566.043C1018.74 566.043 1024.85 563.422 1030.1 558.181C1035.34 552.939 1037.96 546.824 1037.96 539.835C1037.96 532.846 1035.34 526.731 1030.1 521.489C1024.85 516.247 1018.74 513.627 1011.75 513.627C1004.76 513.627 998.646 516.247 993.405 521.489C988.163 526.731 985.542 532.846 985.542 539.835C985.542 546.824 988.163 552.939 993.405 558.181Z" fill="#4A67B5"/>
<path d="M521.654 87.5959C526.896 92.8375 533.011 95.4584 540 95.4584C546.989 95.4584 553.104 92.8375 558.346 87.5959C563.588 82.3542 566.209 76.2389 566.209 69.25C566.209 62.2611 563.588 56.1459 558.346 50.9042C553.104 45.6625 546.989 43.0417 540 43.0417C533.011 43.0417 526.896 45.6625 521.654 50.9042C516.413 56.1459 513.792 62.2611 513.792 69.25C513.792 76.2389 516.413 82.3542 521.654 87.5959Z" fill="#4A67B5"/>
<path d="M49.9045 558.181C55.1462 563.422 61.2614 566.043 68.2503 566.043C75.2392 566.043 81.3545 563.422 86.5962 558.181C91.8378 552.939 94.4587 546.824 94.4587 539.835C94.4587 532.846 91.8378 526.731 86.5962 521.489C81.3545 516.247 75.2392 513.627 68.2503 513.627C61.2614 513.627 55.1462 516.247 49.9045 521.489C44.6628 526.731 42.042 532.846 42.042 539.835C42.042 546.824 44.6628 552.939 49.9045 558.181Z" fill="#4A67B5"/>
<path d="M521.654 1031.1C526.896 1036.34 533.011 1038.96 540 1038.96C546.989 1038.96 553.104 1036.34 558.346 1031.1C563.588 1025.85 566.209 1019.74 566.209 1012.75C566.209 1005.76 563.588 999.646 558.346 994.404C553.104 989.163 546.989 986.542 540 986.542C533.011 986.542 526.896 989.163 521.654 994.404C516.413 999.646 513.792 1005.76 513.792 1012.75C513.792 1019.74 516.413 1025.85 521.654 1031.1Z" fill="#4A67B5"/>
</g>
<g filter="url(#filter4_dii_2730_41)">
<path d="M225.5 907.917C210.649 907.917 198.2 902.893 188.153 892.847C178.107 882.8 173.084 870.351 173.084 855.5C173.084 840.649 178.107 828.2 188.153 818.153C198.2 808.107 210.649 803.083 225.5 803.083C240.352 803.083 252.801 808.107 262.847 818.153C272.894 828.2 277.917 840.649 277.917 855.5C277.917 870.351 272.894 882.8 262.847 892.847C252.801 902.893 240.352 907.917 225.5 907.917ZM225.5 698.25C210.649 698.25 198.2 693.227 188.153 683.18C178.107 673.134 173.084 660.685 173.084 645.833C173.084 630.982 178.107 618.533 188.153 608.486C198.2 598.44 210.649 593.417 225.5 593.417C240.352 593.417 252.801 598.44 262.847 608.486C272.894 618.533 277.917 630.982 277.917 645.833C277.917 660.685 272.894 673.134 262.847 683.18C252.801 693.227 240.352 698.25 225.5 698.25ZM225.5 488.583C210.649 488.583 198.2 483.56 188.153 473.514C178.107 463.467 173.084 451.018 173.084 436.167C173.084 421.315 178.107 408.866 188.153 398.82C198.2 388.773 210.649 383.75 225.5 383.75C240.352 383.75 252.801 388.773 262.847 398.82C272.894 408.866 277.917 421.315 277.917 436.167C277.917 451.018 272.894 463.467 262.847 473.514C252.801 483.56 240.352 488.583 225.5 488.583ZM225.5 278.917C210.649 278.917 198.2 273.893 188.153 263.847C178.107 253.8 173.084 241.351 173.084 226.5C173.084 211.649 178.107 199.2 188.153 189.153C198.2 179.107 210.649 174.083 225.5 174.083C240.352 174.083 252.801 179.107 262.847 189.153C272.894 199.2 277.917 211.649 277.917 226.5C277.917 241.351 272.894 253.8 262.847 263.847C252.801 273.893 240.352 278.917 225.5 278.917ZM435.167 907.917C420.316 907.917 407.867 902.893 397.82 892.847C387.774 882.8 382.75 870.351 382.75 855.5C382.75 840.649 387.774 828.2 397.82 818.153C407.867 808.107 420.316 803.083 435.167 803.083C450.018 803.083 462.467 808.107 472.514 818.153C482.56 828.2 487.584 840.649 487.584 855.5C487.584 870.351 482.56 882.8 472.514 892.847C462.467 902.893 450.018 907.917 435.167 907.917ZM435.167 278.917C420.316 278.917 407.867 273.893 397.82 263.847C387.774 253.8 382.75 241.351 382.75 226.5C382.75 211.649 387.774 199.2 397.82 189.153C407.867 179.107 420.316 174.083 435.167 174.083C450.018 174.083 462.467 179.107 472.514 189.153C482.56 199.2 487.584 211.649 487.584 226.5C487.584 241.351 482.56 253.8 472.514 263.847C462.467 273.893 450.018 278.917 435.167 278.917ZM644.834 907.917C629.982 907.917 617.533 902.893 607.487 892.847C597.44 882.8 592.417 870.351 592.417 855.5C592.417 840.649 597.44 828.2 607.487 818.153C617.533 808.107 629.982 803.083 644.834 803.083C659.685 803.083 672.134 808.107 682.181 818.153C692.227 828.2 697.25 840.649 697.25 855.5C697.25 870.351 692.227 882.8 682.181 892.847C672.134 902.893 659.685 907.917 644.834 907.917ZM644.834 278.917C629.982 278.917 617.533 273.893 607.487 263.847C597.44 253.8 592.417 241.351 592.417 226.5C592.417 211.649 597.44 199.2 607.487 189.153C617.533 179.107 629.982 174.083 644.834 174.083C659.685 174.083 672.134 179.107 682.181 189.153C692.227 199.2 697.25 211.649 697.25 226.5C697.25 241.351 692.227 253.8 682.181 263.847C672.134 273.893 659.685 278.917 644.834 278.917ZM854.5 907.917C839.649 907.917 827.2 902.893 817.153 892.847C807.107 882.8 802.084 870.351 802.084 855.5C802.084 840.649 807.107 828.2 817.153 818.153C827.2 808.107 839.649 803.083 854.5 803.083C869.352 803.083 881.801 808.107 891.847 818.153C901.894 828.2 906.917 840.649 906.917 855.5C906.917 870.351 901.894 882.8 891.847 892.847C881.801 902.893 869.352 907.917 854.5 907.917ZM854.5 698.25C839.649 698.25 827.2 693.227 817.153 683.18C807.107 673.134 802.084 660.685 802.084 645.833C802.084 630.982 807.107 618.533 817.153 608.486C827.2 598.44 839.649 593.417 854.5 593.417C869.352 593.417 881.801 598.44 891.847 608.486C901.894 618.533 906.917 630.982 906.917 645.833C906.917 660.685 901.894 673.134 891.847 683.18C881.801 693.227 869.352 698.25 854.5 698.25ZM854.5 488.583C839.649 488.583 827.2 483.56 817.153 473.514C807.107 463.467 802.084 451.018 802.084 436.167C802.084 421.315 807.107 408.866 817.153 398.82C827.2 388.773 839.649 383.75 854.5 383.75C869.352 383.75 881.801 388.773 891.847 398.82C901.894 408.866 906.917 421.315 906.917 436.167C906.917 451.018 901.894 463.467 891.847 473.514C881.801 483.56 869.352 488.583 854.5 488.583ZM854.5 278.917C839.649 278.917 827.2 273.893 817.153 263.847C807.107 253.8 802.084 241.351 802.084 226.5C802.084 211.649 807.107 199.2 817.153 189.153C827.2 179.107 839.649 174.083 854.5 174.083C869.352 174.083 881.801 179.107 891.847 189.153C901.894 199.2 906.917 211.649 906.917 226.5C906.917 241.351 901.894 253.8 891.847 263.847C881.801 273.893 869.352 278.917 854.5 278.917Z" fill="#4A67B5" fill-opacity="0.5" shape-rendering="crispEdges"/>
<path d="M993.405 558.181C998.646 563.422 1004.76 566.043 1011.75 566.043C1018.74 566.043 1024.85 563.422 1030.1 558.181C1035.34 552.939 1037.96 546.824 1037.96 539.835C1037.96 532.846 1035.34 526.731 1030.1 521.489C1024.85 516.247 1018.74 513.627 1011.75 513.627C1004.76 513.627 998.646 516.247 993.405 521.489C988.163 526.731 985.542 532.846 985.542 539.835C985.542 546.824 988.163 552.939 993.405 558.181Z" fill="#4A67B5" fill-opacity="0.5" shape-rendering="crispEdges"/>
<path d="M521.654 87.5959C526.896 92.8375 533.011 95.4584 540 95.4584C546.989 95.4584 553.104 92.8375 558.346 87.5959C563.588 82.3542 566.209 76.2389 566.209 69.25C566.209 62.2611 563.588 56.1459 558.346 50.9042C553.104 45.6625 546.989 43.0417 540 43.0417C533.011 43.0417 526.896 45.6625 521.654 50.9042C516.413 56.1459 513.792 62.2611 513.792 69.25C513.792 76.2389 516.413 82.3542 521.654 87.5959Z" fill="#4A67B5" fill-opacity="0.5" shape-rendering="crispEdges"/>
<path d="M49.9045 558.181C55.1462 563.422 61.2614 566.043 68.2503 566.043C75.2392 566.043 81.3545 563.422 86.5962 558.181C91.8378 552.939 94.4587 546.824 94.4587 539.835C94.4587 532.846 91.8378 526.731 86.5962 521.489C81.3545 516.247 75.2392 513.627 68.2503 513.627C61.2614 513.627 55.1462 516.247 49.9045 521.489C44.6628 526.731 42.042 532.846 42.042 539.835C42.042 546.824 44.6628 552.939 49.9045 558.181Z" fill="#4A67B5" fill-opacity="0.5" shape-rendering="crispEdges"/>
<path d="M521.654 1031.1C526.896 1036.34 533.011 1038.96 540 1038.96C546.989 1038.96 553.104 1036.34 558.346 1031.1C563.588 1025.85 566.209 1019.74 566.209 1012.75C566.209 1005.76 563.588 999.646 558.346 994.404C553.104 989.163 546.989 986.542 540 986.542C533.011 986.542 526.896 989.163 521.654 994.404C516.413 999.646 513.792 1005.76 513.792 1012.75C513.792 1019.74 516.413 1025.85 521.654 1031.1Z" fill="#4A67B5" fill-opacity="0.5" shape-rendering="crispEdges"/>
</g>
</g>
<defs>
<filter id="filter0_f_2730_41" x="231.542" y="232.542" width="616.917" height="616.917" filterUnits="userSpaceOnUse" color-interpolation-filters="sRGB">
<feFlood flood-opacity="0" result="BackgroundImageFix"/>
<feBlend mode="normal" in="SourceGraphic" in2="BackgroundImageFix" result="shape"/>
<feGaussianBlur stdDeviation="62.5" result="effect1_foregroundBlur_2730_41"/>
</filter>
<filter id="filter1_dii_2730_41" x="336.542" y="337.542" width="446.917" height="446.917" filterUnits="userSpaceOnUse" color-interpolation-filters="sRGB">
<feFlood flood-opacity="0" result="BackgroundImageFix"/>
<feColorMatrix in="SourceAlpha" type="matrix" values="0 0 0 0 0 0 0 0 0 0 0 0 0 0 0 0 0 0 127 0" result="hardAlpha"/>
<feOffset dx="20" dy="20"/>
<feGaussianBlur stdDeviation="20"/>
<feComposite in2="hardAlpha" operator="out"/>
<feColorMatrix type="matrix" values="0 0 0 0 0.25 0 0 0 0 0.385514 0 0 0 0 0.75 0 0 0 0.258824 0"/>
<feBlend mode="normal" in2="BackgroundImageFix" result="effect1_dropShadow_2730_41"/>
<feBlend mode="normal" in="SourceGraphic" in2="effect1_dropShadow_2730_41" result="shape"/>
<feColorMatrix in="SourceAlpha" type="matrix" values="0 0 0 0 0 0 0 0 0 0 0 0 0 0 0 0 0 0 127 0" result="hardAlpha"/>
<feOffset dx="-20" dy="-20"/>
<feGaussianBlur stdDeviation="20"/>
<feComposite in2="hardAlpha" operator="arithmetic" k2="-1" k3="1"/>
<feColorMatrix type="matrix" values="0 0 0 0 0.7 0 0 0 0 0.781308 0 0 0 0 1 0 0 0 0.5176 0"/>
<feBlend mode="normal" in2="shape" result="effect2_innerShadow_2730_41"/>
<feColorMatrix in="SourceAlpha" type="matrix" values="0 0 0 0 0 0 0 0 0 0 0 0 0 0 0 0 0 0 127 0" result="hardAlpha"/>
<feOffset dx="-5" dy="-5"/>
<feGaussianBlur stdDeviation="5"/>
<feComposite in2="hardAlpha" operator="arithmetic" k2="-1" k3="1"/>
<feColorMatrix type="matrix" values="0 0 0 0 0.7 0 0 0 0 0.781308 0 0 0 0 1 0 0 0 0.7844 0"/>
<feBlend mode="normal" in2="effect2_innerShadow_2730_41" result="effect3_innerShadow_2730_41"/>
</filter>
<filter id="filter2_f_2730_41" x="-253.287" y="-253.452" width="1587.29" height="1587.29" filterUnits="userSpaceOnUse" color-interpolation-filters="sRGB">
<feFlood flood-opacity="0" result="BackgroundImageFix"/>
<feBlend mode="normal" in="SourceGraphic" in2="BackgroundImageFix" result="shape"/>
<feGaussianBlur stdDeviation="120" result="effect1_foregroundBlur_2730_41"/>
</filter>
<filter id="filter3_f_2730_41" x="-82.958" y="-81.9583" width="1245.92" height="1245.92" filterUnits="userSpaceOnUse" color-interpolation-filters="sRGB">
<feFlood flood-opacity="0" result="BackgroundImageFix"/>
<feBlend mode="normal" in="SourceGraphic" in2="BackgroundImageFix" result="shape"/>
<feGaussianBlur stdDeviation="62.5" result="effect1_foregroundBlur_2730_41"/>
</filter>
<filter id="filter4_dii_2730_41" x="22.042" y="23.0417" width="1075.92" height="1075.92" filterUnits="userSpaceOnUse" color-interpolation-filters="sRGB">
<feFlood flood-opacity="0" result="BackgroundImageFix"/>
<feColorMatrix in="SourceAlpha" type="matrix" values="0 0 0 0 0 0 0 0 0 0 0 0 0 0 0 0 0 0 127 0" result="hardAlpha"/>
<feOffset dx="20" dy="20"/>
<feGaussianBlur stdDeviation="20"/>
<feComposite in2="hardAlpha" operator="out"/>
<feColorMatrix type="matrix" values="0 0 0 0 0.25 0 0 0 0 0.385514 0 0 0 0 0.75 0 0 0 0.258824 0"/>
<feBlend mode="normal" in2="BackgroundImageFix" result="effect1_dropShadow_2730_41"/>
<feBlend mode="normal" in="SourceGraphic" in2="effect1_dropShadow_2730_41" result="shape"/>
<feColorMatrix in="SourceAlpha" type="matrix" values="0 0 0 0 0 0 0 0 0 0 0 0 0 0 0 0 0 0 127 0" result="hardAlpha"/>
<feOffset dx="-20" dy="-20"/>
<feGaussianBlur stdDeviation="20"/>
<feComposite in2="hardAlpha" operator="arithmetic" k2="-1" k3="1"/>
<feColorMatrix type="matrix" values="0 0 0 0 0.7 0 0 0 0 0.781308 0 0 0 0 1 0 0 0 0.5176 0"/>
<feBlend mode="normal" in2="shape" result="effect2_innerShadow_2730_41"/>
<feColorMatrix in="SourceAlpha" type="matrix" values="0 0 0 0 0 0 0 0 0 0 0 0 0 0 0 0 0 0 127 0" result="hardAlpha"/>
<feOffset dx="-5" dy="-5"/>
<feGaussianBlur stdDeviation="5"/>
<feComposite in2="hardAlpha" operator="arithmetic" k2="-1" k3="1"/>
<feColorMatrix type="matrix" values="0 0 0 0 0.7 0 0 0 0 0.781308 0 0 0 0 1 0 0 0 0.7844 0"/>
<feBlend mode="normal" in2="effect2_innerShadow_2730_41" result="effect3_innerShadow_2730_41"/>
</filter>
<linearGradient id="paint0_linear_2730_41" x1="185.896" y1="183.402" x2="891.34" y2="896.116" gradientUnits="userSpaceOnUse">
<stop stop-color="#00FFFF"/>
<stop offset="0.5" stop-color="#94B1FF"/>
<stop offset="1" stop-color="#9D00FF"/>
</linearGradient>
<linearGradient id="paint1_linear_2730_41" x1="185.896" y1="183.402" x2="891.34" y2="896.116" gradientUnits="userSpaceOnUse">
<stop stop-color="#00FFFF"/>
<stop offset="0.5" stop-color="#94B1FF"/>
<stop offset="1" stop-color="#9D00FF"/>
</linearGradient>
<clipPath id="clip0_2730_41">
<rect width="1081" height="1081" fill="white"/>
</clipPath>
</defs>
</svg>
