<svg width="1081" height="1081" viewBox="0 0 1081 1081" fill="none" xmlns="http://www.w3.org/2000/svg">
<g clip-path="url(#clip0_2730_35)">
<path d="M540.999 -384C540.999 11.0393 541.006 237.366 613.056 367.037C755.696 326.294 915.738 166.262 1195.07 -113.073C915.738 166.262 755.704 326.303 714.961 468.942C844.632 540.993 1070.96 540.999 1466 540.999C1070.96 540.999 844.632 541.005 714.961 613.056C755.704 755.696 915.737 915.737 1195.07 1195.07C915.737 915.737 755.696 755.702 613.056 714.959C541.004 844.63 540.999 1070.96 540.999 1466C540.999 1070.96 540.993 844.632 468.942 714.961C326.303 755.705 166.262 915.738 -113.073 1195.07C166.262 915.738 326.294 755.695 367.037 613.056C237.366 541.006 11.0393 540.999 -384 540.999C11.0398 540.999 237.366 540.993 367.037 468.942C326.294 326.303 166.262 166.262 -113.073 -113.073C166.261 166.261 326.303 326.293 468.942 367.037C540.993 237.366 540.999 11.0399 540.999 -384Z" fill="url(#paint0_linear_2730_35)"/>
</g>
<defs>
<linearGradient id="paint0_linear_2730_35" x1="-51.2159" y1="-55.1081" x2="1127.4" y2="1135.65" gradientUnits="userSpaceOnUse">
<stop stop-color="#00FFFF"/>
<stop offset="0.5" stop-color="#94B1FF"/>
<stop offset="1" stop-color="#9D00FF"/>
</linearGradient>
<clipPath id="clip0_2730_35">
<rect width="1081" height="1081" fill="white"/>
</clipPath>
</defs>
</svg>
