<svg width="1081" height="1081" viewBox="0 0 1081 1081" fill="none" xmlns="http://www.w3.org/2000/svg">
<g clip-path="url(#clip0_2728_2)">
<path d="M0 540C0 -0.000366211 -0.000244141 0 540 0C1080 0 1080 -0.000183105 1080 540C1080 1080 1080 1084 540 1080C-6.10352e-05 1076 0 1080 0 540Z" fill="black"/>
<g filter="url(#filter0_ii_2728_2)">
<path d="M0 540C0 -0.000366211 -0.000244141 0 540 0C1080 0 1080 -0.000183105 1080 540C1080 1080 1080 1084 540 1080C-6.10352e-05 1076 0 1080 0 540Z" fill="black"/>
</g>
<path d="M540 3C675.073 3 776.124 3.00426 851.856 11.4189C927.611 19.8361 977.372 36.6146 1010.38 69.6211C1043.39 102.628 1060.16 152.389 1068.58 228.144C1077 303.876 1077 404.927 1077 540C1077 675.073 1077 776.374 1068.58 852.42C1060.16 928.49 1043.38 978.63 1010.37 1011.89C977.366 1045.14 927.608 1062.04 851.863 1070.27C776.139 1078.49 675.091 1078 540.022 1077C404.945 1076 303.891 1075.5 228.151 1066.89C152.387 1058.29 102.621 1041.63 69.6133 1008.87C36.6125 976.115 19.8357 926.731 11.4189 851.292C3.00448 775.873 3 675.074 3 540C3 404.927 3.00427 303.876 11.4189 228.144C19.8361 152.389 36.6146 102.628 69.6211 69.6211C102.628 36.6146 152.389 19.8361 228.144 11.4189C303.876 3.00428 404.927 3 540 3Z" stroke="url(#paint0_linear_2728_2)" stroke-width="6"/>
<g filter="url(#filter1_f_2728_2)">
<path d="M450 698.5C431.25 698.5 415.312 691.938 402.188 678.812C389.062 665.688 382.5 649.75 382.5 631C382.5 612.25 389.062 596.312 402.188 583.188C415.312 570.062 431.25 563.5 450 563.5C468.75 563.5 484.688 570.062 497.812 583.188C510.938 596.312 517.5 612.25 517.5 631C517.5 649.75 510.938 665.688 497.812 678.812C484.688 691.938 468.75 698.5 450 698.5ZM450 518.5C431.25 518.5 415.312 511.938 402.188 498.812C389.062 485.688 382.5 469.75 382.5 451C382.5 432.25 389.062 416.312 402.188 403.188C415.312 390.062 431.25 383.5 450 383.5C468.75 383.5 484.688 390.062 497.812 403.188C510.938 416.312 517.5 432.25 517.5 451C517.5 469.75 510.938 485.688 497.812 498.812C484.688 511.938 468.75 518.5 450 518.5ZM630 698.5C611.25 698.5 595.312 691.938 582.188 678.812C569.062 665.688 562.5 649.75 562.5 631C562.5 612.25 569.062 596.312 582.188 583.188C595.312 570.062 611.25 563.5 630 563.5C648.75 563.5 664.688 570.062 677.812 583.188C690.938 596.312 697.5 612.25 697.5 631C697.5 649.75 690.938 665.688 677.812 678.812C664.688 691.938 648.75 698.5 630 698.5ZM630 518.5C611.25 518.5 595.312 511.938 582.188 498.812C569.062 485.688 562.5 469.75 562.5 451C562.5 432.25 569.062 416.312 582.188 403.188C595.312 390.062 611.25 383.5 630 383.5C648.75 383.5 664.688 390.062 677.812 403.188C690.938 416.312 697.5 432.25 697.5 451C697.5 469.75 690.938 485.688 677.812 498.812C664.688 511.938 648.75 518.5 630 518.5Z" fill="#4A67B5"/>
</g>
<g filter="url(#filter2_dii_2728_2)">
<path d="M450 698.5C431.25 698.5 415.312 691.938 402.188 678.812C389.062 665.688 382.5 649.75 382.5 631C382.5 612.25 389.062 596.312 402.188 583.188C415.312 570.062 431.25 563.5 450 563.5C468.75 563.5 484.688 570.062 497.812 583.188C510.938 596.312 517.5 612.25 517.5 631C517.5 649.75 510.938 665.688 497.812 678.812C484.688 691.938 468.75 698.5 450 698.5ZM450 518.5C431.25 518.5 415.312 511.938 402.188 498.812C389.062 485.688 382.5 469.75 382.5 451C382.5 432.25 389.062 416.312 402.188 403.188C415.312 390.062 431.25 383.5 450 383.5C468.75 383.5 484.688 390.062 497.812 403.188C510.938 416.312 517.5 432.25 517.5 451C517.5 469.75 510.938 485.688 497.812 498.812C484.688 511.938 468.75 518.5 450 518.5ZM630 698.5C611.25 698.5 595.312 691.938 582.188 678.812C569.062 665.688 562.5 649.75 562.5 631C562.5 612.25 569.062 596.312 582.188 583.188C595.312 570.062 611.25 563.5 630 563.5C648.75 563.5 664.688 570.062 677.812 583.188C690.938 596.312 697.5 612.25 697.5 631C697.5 649.75 690.938 665.688 677.812 678.812C664.688 691.938 648.75 698.5 630 698.5ZM630 518.5C611.25 518.5 595.312 511.938 582.188 498.812C569.062 485.688 562.5 469.75 562.5 451C562.5 432.25 569.062 416.312 582.188 403.188C595.312 390.062 611.25 383.5 630 383.5C648.75 383.5 664.688 390.062 677.812 403.188C690.938 416.312 697.5 432.25 697.5 451C697.5 469.75 690.938 485.688 677.812 498.812C664.688 511.938 648.75 518.5 630 518.5Z" fill="#4A67B5" fill-opacity="0.5" shape-rendering="crispEdges"/>
</g>
<g filter="url(#filter3_f_2728_2)">
<path d="M540.308 65C540.308 267.99 540.311 384.287 577.334 450.918C650.629 429.982 732.866 347.751 876.401 204.215C732.866 347.75 650.633 429.987 629.697 503.281C696.328 540.305 812.626 540.308 1015.62 540.308C812.626 540.308 696.328 540.311 629.697 577.334C650.633 650.629 732.866 732.866 876.401 876.401C732.865 732.865 650.629 650.632 577.334 629.696C540.31 696.327 540.308 812.625 540.308 1015.62C540.308 812.626 540.305 696.328 503.281 629.697C429.987 650.633 347.75 732.866 204.215 876.401C347.75 732.866 429.982 650.629 450.918 577.334C384.287 540.311 267.99 540.308 65 540.308C267.99 540.308 384.287 540.304 450.918 503.281C429.982 429.987 347.75 347.75 204.215 204.215C347.75 347.75 429.987 429.982 503.281 450.918C540.304 384.287 540.308 267.99 540.308 65Z" fill="url(#paint1_linear_2728_2)"/>
</g>
<path d="M540.308 65C540.308 267.99 540.311 384.287 577.334 450.918C650.629 429.982 732.866 347.751 876.401 204.215C732.866 347.75 650.633 429.987 629.697 503.281C696.328 540.305 812.626 540.308 1015.62 540.308C812.626 540.308 696.328 540.311 629.697 577.334C650.633 650.629 732.866 732.866 876.401 876.401C732.865 732.865 650.629 650.632 577.334 629.696C540.31 696.327 540.308 812.625 540.308 1015.62C540.308 812.626 540.305 696.328 503.281 629.697C429.987 650.633 347.75 732.866 204.215 876.401C347.75 732.866 429.982 650.629 450.918 577.334C384.287 540.311 267.99 540.308 65 540.308C267.99 540.308 384.287 540.304 450.918 503.281C429.982 429.987 347.75 347.75 204.215 204.215C347.75 347.75 429.987 429.982 503.281 450.918C540.304 384.287 540.308 267.99 540.308 65Z" fill="url(#paint2_linear_2728_2)"/>
<g clip-path="url(#clip1_2728_2)">
<g filter="url(#filter4_f_2728_2)">
<path d="M270 856C257.25 856 246.562 851.688 237.938 843.062C229.312 834.438 225 823.75 225 811C225 798.25 229.312 787.562 237.938 778.938C246.562 770.312 257.25 766 270 766C282.75 766 293.438 770.312 302.062 778.938C310.688 787.562 315 798.25 315 811C315 823.75 310.688 834.438 302.062 843.062C293.438 851.688 282.75 856 270 856ZM270 676C257.25 676 246.562 671.688 237.938 663.062C229.312 654.438 225 643.75 225 631C225 618.25 229.312 607.562 237.938 598.938C246.562 590.312 257.25 586 270 586C282.75 586 293.438 590.312 302.062 598.938C310.688 607.562 315 618.25 315 631C315 643.75 310.688 654.438 302.062 663.062C293.438 671.688 282.75 676 270 676ZM270 496C257.25 496 246.562 491.688 237.938 483.062C229.312 474.438 225 463.75 225 451C225 438.25 229.312 427.562 237.938 418.938C246.562 410.312 257.25 406 270 406C282.75 406 293.438 410.312 302.062 418.938C310.688 427.562 315 438.25 315 451C315 463.75 310.688 474.438 302.062 483.062C293.438 491.688 282.75 496 270 496ZM270 316C257.25 316 246.562 311.688 237.938 303.062C229.312 294.438 225 283.75 225 271C225 258.25 229.312 247.562 237.938 238.938C246.562 230.312 257.25 226 270 226C282.75 226 293.438 230.312 302.062 238.938C310.688 247.562 315 258.25 315 271C315 283.75 310.688 294.438 302.062 303.062C293.438 311.688 282.75 316 270 316ZM450 856C437.25 856 426.562 851.688 417.938 843.062C409.312 834.438 405 823.75 405 811C405 798.25 409.312 787.562 417.938 778.938C426.562 770.312 437.25 766 450 766C462.75 766 473.438 770.312 482.062 778.938C490.688 787.562 495 798.25 495 811C495 823.75 490.688 834.438 482.062 843.062C473.438 851.688 462.75 856 450 856ZM450 316C437.25 316 426.562 311.688 417.938 303.062C409.312 294.438 405 283.75 405 271C405 258.25 409.312 247.562 417.938 238.938C426.562 230.312 437.25 226 450 226C462.75 226 473.438 230.312 482.062 238.938C490.688 247.562 495 258.25 495 271C495 283.75 490.688 294.438 482.062 303.062C473.438 311.688 462.75 316 450 316ZM630 856C617.25 856 606.562 851.688 597.938 843.062C589.312 834.438 585 823.75 585 811C585 798.25 589.312 787.562 597.938 778.938C606.562 770.312 617.25 766 630 766C642.75 766 653.438 770.312 662.062 778.938C670.688 787.562 675 798.25 675 811C675 823.75 670.688 834.438 662.062 843.062C653.438 851.688 642.75 856 630 856ZM630 316C617.25 316 606.562 311.688 597.938 303.062C589.312 294.438 585 283.75 585 271C585 258.25 589.312 247.562 597.938 238.938C606.562 230.312 617.25 226 630 226C642.75 226 653.438 230.312 662.062 238.938C670.688 247.562 675 258.25 675 271C675 283.75 670.688 294.438 662.062 303.062C653.438 311.688 642.75 316 630 316ZM810 856C797.25 856 786.562 851.688 777.938 843.062C769.312 834.438 765 823.75 765 811C765 798.25 769.312 787.562 777.938 778.938C786.562 770.312 797.25 766 810 766C822.75 766 833.438 770.312 842.062 778.938C850.688 787.562 855 798.25 855 811C855 823.75 850.688 834.438 842.062 843.062C833.438 851.688 822.75 856 810 856ZM810 676C797.25 676 786.562 671.688 777.938 663.062C769.312 654.438 765 643.75 765 631C765 618.25 769.312 607.562 777.938 598.938C786.562 590.312 797.25 586 810 586C822.75 586 833.438 590.312 842.062 598.938C850.688 607.562 855 618.25 855 631C855 643.75 850.688 654.438 842.062 663.062C833.438 671.688 822.75 676 810 676ZM810 496C797.25 496 786.562 491.688 777.938 483.062C769.312 474.438 765 463.75 765 451C765 438.25 769.312 427.562 777.938 418.938C786.562 410.312 797.25 406 810 406C822.75 406 833.438 410.312 842.062 418.938C850.688 427.562 855 438.25 855 451C855 463.75 850.688 474.438 842.062 483.062C833.438 491.688 822.75 496 810 496ZM810 316C797.25 316 786.562 311.688 777.938 303.062C769.312 294.438 765 283.75 765 271C765 258.25 769.312 247.562 777.938 238.938C786.562 230.312 797.25 226 810 226C822.75 226 833.438 230.312 842.062 238.938C850.688 247.562 855 258.25 855 271C855 283.75 850.688 294.438 842.062 303.062C833.438 311.688 822.75 316 810 316Z" fill="#4A67B5"/>
<path d="M929.25 555.75C933.75 560.25 939 562.5 945 562.5C951 562.5 956.25 560.25 960.75 555.75C965.25 551.25 967.5 546 967.5 540C967.5 534 965.25 528.75 960.75 524.25C956.25 519.75 951 517.5 945 517.5C939 517.5 933.75 519.75 929.25 524.25C924.75 528.75 922.5 534 922.5 540C922.5 546 924.75 551.25 929.25 555.75Z" fill="#4A67B5"/>
<path d="M524.25 151.75C528.75 156.25 534 158.5 540 158.5C546 158.5 551.25 156.25 555.75 151.75C560.25 147.25 562.5 142 562.5 136C562.5 130 560.25 124.75 555.75 120.25C551.25 115.75 546 113.5 540 113.5C534 113.5 528.75 115.75 524.25 120.25C519.75 124.75 517.5 130 517.5 136C517.5 142 519.75 147.25 524.25 151.75Z" fill="#4A67B5"/>
<path d="M119.25 555.75C123.75 560.25 129 562.5 135 562.5C141 562.5 146.25 560.25 150.75 555.75C155.25 551.25 157.5 546 157.5 540C157.5 534 155.25 528.75 150.75 524.25C146.25 519.75 141 517.5 135 517.5C129 517.5 123.75 519.75 119.25 524.25C114.75 528.75 112.5 534 112.5 540C112.5 546 114.75 551.25 119.25 555.75Z" fill="#4A67B5"/>
<path d="M524.25 961.75C528.75 966.25 534 968.5 540 968.5C546 968.5 551.25 966.25 555.75 961.75C560.25 957.25 562.5 952 562.5 946C562.5 940 560.25 934.75 555.75 930.25C551.25 925.75 546 923.5 540 923.5C534 923.5 528.75 925.75 524.25 930.25C519.75 934.75 517.5 940 517.5 946C517.5 952 519.75 957.25 524.25 961.75Z" fill="#4A67B5"/>
</g>
<g filter="url(#filter5_dii_2728_2)">
<path d="M270 856C257.25 856 246.562 851.688 237.938 843.062C229.312 834.438 225 823.75 225 811C225 798.25 229.312 787.562 237.938 778.938C246.562 770.312 257.25 766 270 766C282.75 766 293.438 770.312 302.062 778.938C310.688 787.562 315 798.25 315 811C315 823.75 310.688 834.438 302.062 843.062C293.438 851.688 282.75 856 270 856ZM270 676C257.25 676 246.562 671.688 237.938 663.062C229.312 654.438 225 643.75 225 631C225 618.25 229.312 607.562 237.938 598.938C246.562 590.312 257.25 586 270 586C282.75 586 293.438 590.312 302.062 598.938C310.688 607.562 315 618.25 315 631C315 643.75 310.688 654.438 302.062 663.062C293.438 671.688 282.75 676 270 676ZM270 496C257.25 496 246.562 491.688 237.938 483.062C229.312 474.438 225 463.75 225 451C225 438.25 229.312 427.562 237.938 418.938C246.562 410.312 257.25 406 270 406C282.75 406 293.438 410.312 302.062 418.938C310.688 427.562 315 438.25 315 451C315 463.75 310.688 474.438 302.062 483.062C293.438 491.688 282.75 496 270 496ZM270 316C257.25 316 246.562 311.688 237.938 303.062C229.312 294.438 225 283.75 225 271C225 258.25 229.312 247.562 237.938 238.938C246.562 230.312 257.25 226 270 226C282.75 226 293.438 230.312 302.062 238.938C310.688 247.562 315 258.25 315 271C315 283.75 310.688 294.438 302.062 303.062C293.438 311.688 282.75 316 270 316ZM450 856C437.25 856 426.562 851.688 417.938 843.062C409.312 834.438 405 823.75 405 811C405 798.25 409.312 787.562 417.938 778.938C426.562 770.312 437.25 766 450 766C462.75 766 473.438 770.312 482.062 778.938C490.688 787.562 495 798.25 495 811C495 823.75 490.688 834.438 482.062 843.062C473.438 851.688 462.75 856 450 856ZM450 316C437.25 316 426.562 311.688 417.938 303.062C409.312 294.438 405 283.75 405 271C405 258.25 409.312 247.562 417.938 238.938C426.562 230.312 437.25 226 450 226C462.75 226 473.438 230.312 482.062 238.938C490.688 247.562 495 258.25 495 271C495 283.75 490.688 294.438 482.062 303.062C473.438 311.688 462.75 316 450 316ZM630 856C617.25 856 606.562 851.688 597.938 843.062C589.312 834.438 585 823.75 585 811C585 798.25 589.312 787.562 597.938 778.938C606.562 770.312 617.25 766 630 766C642.75 766 653.438 770.312 662.062 778.938C670.688 787.562 675 798.25 675 811C675 823.75 670.688 834.438 662.062 843.062C653.438 851.688 642.75 856 630 856ZM630 316C617.25 316 606.562 311.688 597.938 303.062C589.312 294.438 585 283.75 585 271C585 258.25 589.312 247.562 597.938 238.938C606.562 230.312 617.25 226 630 226C642.75 226 653.438 230.312 662.062 238.938C670.688 247.562 675 258.25 675 271C675 283.75 670.688 294.438 662.062 303.062C653.438 311.688 642.75 316 630 316ZM810 856C797.25 856 786.562 851.688 777.938 843.062C769.312 834.438 765 823.75 765 811C765 798.25 769.312 787.562 777.938 778.938C786.562 770.312 797.25 766 810 766C822.75 766 833.438 770.312 842.062 778.938C850.688 787.562 855 798.25 855 811C855 823.75 850.688 834.438 842.062 843.062C833.438 851.688 822.75 856 810 856ZM810 676C797.25 676 786.562 671.688 777.938 663.062C769.312 654.438 765 643.75 765 631C765 618.25 769.312 607.562 777.938 598.938C786.562 590.312 797.25 586 810 586C822.75 586 833.438 590.312 842.062 598.938C850.688 607.562 855 618.25 855 631C855 643.75 850.688 654.438 842.062 663.062C833.438 671.688 822.75 676 810 676ZM810 496C797.25 496 786.562 491.688 777.938 483.062C769.312 474.438 765 463.75 765 451C765 438.25 769.312 427.562 777.938 418.938C786.562 410.312 797.25 406 810 406C822.75 406 833.438 410.312 842.062 418.938C850.688 427.562 855 438.25 855 451C855 463.75 850.688 474.438 842.062 483.062C833.438 491.688 822.75 496 810 496ZM810 316C797.25 316 786.562 311.688 777.938 303.062C769.312 294.438 765 283.75 765 271C765 258.25 769.312 247.562 777.938 238.938C786.562 230.312 797.25 226 810 226C822.75 226 833.438 230.312 842.062 238.938C850.688 247.562 855 258.25 855 271C855 283.75 850.688 294.438 842.062 303.062C833.438 311.688 822.75 316 810 316Z" fill="#4A67B5" fill-opacity="0.5" shape-rendering="crispEdges"/>
<path d="M929.25 555.75C933.75 560.25 939 562.5 945 562.5C951 562.5 956.25 560.25 960.75 555.75C965.25 551.25 967.5 546 967.5 540C967.5 534 965.25 528.75 960.75 524.25C956.25 519.75 951 517.5 945 517.5C939 517.5 933.75 519.75 929.25 524.25C924.75 528.75 922.5 534 922.5 540C922.5 546 924.75 551.25 929.25 555.75Z" fill="#4A67B5" fill-opacity="0.5" shape-rendering="crispEdges"/>
<path d="M524.25 151.75C528.75 156.25 534 158.5 540 158.5C546 158.5 551.25 156.25 555.75 151.75C560.25 147.25 562.5 142 562.5 136C562.5 130 560.25 124.75 555.75 120.25C551.25 115.75 546 113.5 540 113.5C534 113.5 528.75 115.75 524.25 120.25C519.75 124.75 517.5 130 517.5 136C517.5 142 519.75 147.25 524.25 151.75Z" fill="#4A67B5" fill-opacity="0.5" shape-rendering="crispEdges"/>
<path d="M119.25 555.75C123.75 560.25 129 562.5 135 562.5C141 562.5 146.25 560.25 150.75 555.75C155.25 551.25 157.5 546 157.5 540C157.5 534 155.25 528.75 150.75 524.25C146.25 519.75 141 517.5 135 517.5C129 517.5 123.75 519.75 119.25 524.25C114.75 528.75 112.5 534 112.5 540C112.5 546 114.75 551.25 119.25 555.75Z" fill="#4A67B5" fill-opacity="0.5" shape-rendering="crispEdges"/>
<path d="M524.25 961.75C528.75 966.25 534 968.5 540 968.5C546 968.5 551.25 966.25 555.75 961.75C560.25 957.25 562.5 952 562.5 946C562.5 940 560.25 934.75 555.75 930.25C551.25 925.75 546 923.5 540 923.5C534 923.5 528.75 925.75 524.25 930.25C519.75 934.75 517.5 940 517.5 946C517.5 952 519.75 957.25 524.25 961.75Z" fill="#4A67B5" fill-opacity="0.5" shape-rendering="crispEdges"/>
</g>
</g>
</g>
<defs>
<filter id="filter0_ii_2728_2" x="-240" y="-240" width="1320" height="1320.54" filterUnits="userSpaceOnUse" color-interpolation-filters="sRGB">
<feFlood flood-opacity="0" result="BackgroundImageFix"/>
<feBlend mode="normal" in="SourceGraphic" in2="BackgroundImageFix" result="shape"/>
<feColorMatrix in="SourceAlpha" type="matrix" values="0 0 0 0 0 0 0 0 0 0 0 0 0 0 0 0 0 0 127 0" result="hardAlpha"/>
<feOffset dx="-240" dy="-240"/>
<feGaussianBlur stdDeviation="125"/>
<feComposite in2="hardAlpha" operator="arithmetic" k2="-1" k3="1"/>
<feColorMatrix type="matrix" values="0 0 0 0 0.698039 0 0 0 0 0.780392 0 0 0 0 1 0 0 0 0.129412 0"/>
<feBlend mode="normal" in2="shape" result="effect1_innerShadow_2728_2"/>
<feColorMatrix in="SourceAlpha" type="matrix" values="0 0 0 0 0 0 0 0 0 0 0 0 0 0 0 0 0 0 127 0" result="hardAlpha"/>
<feOffset dx="-60" dy="-60"/>
<feGaussianBlur stdDeviation="60"/>
<feComposite in2="hardAlpha" operator="arithmetic" k2="-1" k3="1"/>
<feColorMatrix type="matrix" values="0 0 0 0 0.698039 0 0 0 0 0.780392 0 0 0 0 1 0 0 0 0.196078 0"/>
<feBlend mode="normal" in2="effect1_innerShadow_2728_2" result="effect2_innerShadow_2728_2"/>
</filter>
<filter id="filter1_f_2728_2" x="257.5" y="258.5" width="565" height="565" filterUnits="userSpaceOnUse" color-interpolation-filters="sRGB">
<feFlood flood-opacity="0" result="BackgroundImageFix"/>
<feBlend mode="normal" in="SourceGraphic" in2="BackgroundImageFix" result="shape"/>
<feGaussianBlur stdDeviation="62.5" result="effect1_foregroundBlur_2728_2"/>
</filter>
<filter id="filter2_dii_2728_2" x="362.5" y="363.5" width="395" height="395" filterUnits="userSpaceOnUse" color-interpolation-filters="sRGB">
<feFlood flood-opacity="0" result="BackgroundImageFix"/>
<feColorMatrix in="SourceAlpha" type="matrix" values="0 0 0 0 0 0 0 0 0 0 0 0 0 0 0 0 0 0 127 0" result="hardAlpha"/>
<feOffset dx="20" dy="20"/>
<feGaussianBlur stdDeviation="20"/>
<feComposite in2="hardAlpha" operator="out"/>
<feColorMatrix type="matrix" values="0 0 0 0 0.25 0 0 0 0 0.385514 0 0 0 0 0.75 0 0 0 0.258824 0"/>
<feBlend mode="normal" in2="BackgroundImageFix" result="effect1_dropShadow_2728_2"/>
<feBlend mode="normal" in="SourceGraphic" in2="effect1_dropShadow_2728_2" result="shape"/>
<feColorMatrix in="SourceAlpha" type="matrix" values="0 0 0 0 0 0 0 0 0 0 0 0 0 0 0 0 0 0 127 0" result="hardAlpha"/>
<feOffset dx="-20" dy="-20"/>
<feGaussianBlur stdDeviation="20"/>
<feComposite in2="hardAlpha" operator="arithmetic" k2="-1" k3="1"/>
<feColorMatrix type="matrix" values="0 0 0 0 0.7 0 0 0 0 0.781308 0 0 0 0 1 0 0 0 0.5176 0"/>
<feBlend mode="normal" in2="shape" result="effect2_innerShadow_2728_2"/>
<feColorMatrix in="SourceAlpha" type="matrix" values="0 0 0 0 0 0 0 0 0 0 0 0 0 0 0 0 0 0 127 0" result="hardAlpha"/>
<feOffset dx="-5" dy="-5"/>
<feGaussianBlur stdDeviation="5"/>
<feComposite in2="hardAlpha" operator="arithmetic" k2="-1" k3="1"/>
<feColorMatrix type="matrix" values="0 0 0 0 0.7 0 0 0 0 0.781308 0 0 0 0 1 0 0 0 0.7844 0"/>
<feBlend mode="normal" in2="effect2_innerShadow_2728_2" result="effect3_innerShadow_2728_2"/>
</filter>
<filter id="filter3_f_2728_2" x="-175" y="-175" width="1430.62" height="1430.62" filterUnits="userSpaceOnUse" color-interpolation-filters="sRGB">
<feFlood flood-opacity="0" result="BackgroundImageFix"/>
<feBlend mode="normal" in="SourceGraphic" in2="BackgroundImageFix" result="shape"/>
<feGaussianBlur stdDeviation="120" result="effect1_foregroundBlur_2728_2"/>
</filter>
<filter id="filter4_f_2728_2" x="-12.5" y="-11.5" width="1105" height="1105" filterUnits="userSpaceOnUse" color-interpolation-filters="sRGB">
<feFlood flood-opacity="0" result="BackgroundImageFix"/>
<feBlend mode="normal" in="SourceGraphic" in2="BackgroundImageFix" result="shape"/>
<feGaussianBlur stdDeviation="62.5" result="effect1_foregroundBlur_2728_2"/>
</filter>
<filter id="filter5_dii_2728_2" x="92.5" y="93.5" width="935" height="935" filterUnits="userSpaceOnUse" color-interpolation-filters="sRGB">
<feFlood flood-opacity="0" result="BackgroundImageFix"/>
<feColorMatrix in="SourceAlpha" type="matrix" values="0 0 0 0 0 0 0 0 0 0 0 0 0 0 0 0 0 0 127 0" result="hardAlpha"/>
<feOffset dx="20" dy="20"/>
<feGaussianBlur stdDeviation="20"/>
<feComposite in2="hardAlpha" operator="out"/>
<feColorMatrix type="matrix" values="0 0 0 0 0.25 0 0 0 0 0.385514 0 0 0 0 0.75 0 0 0 0.258824 0"/>
<feBlend mode="normal" in2="BackgroundImageFix" result="effect1_dropShadow_2728_2"/>
<feBlend mode="normal" in="SourceGraphic" in2="effect1_dropShadow_2728_2" result="shape"/>
<feColorMatrix in="SourceAlpha" type="matrix" values="0 0 0 0 0 0 0 0 0 0 0 0 0 0 0 0 0 0 127 0" result="hardAlpha"/>
<feOffset dx="-20" dy="-20"/>
<feGaussianBlur stdDeviation="20"/>
<feComposite in2="hardAlpha" operator="arithmetic" k2="-1" k3="1"/>
<feColorMatrix type="matrix" values="0 0 0 0 0.7 0 0 0 0 0.781308 0 0 0 0 1 0 0 0 0.5176 0"/>
<feBlend mode="normal" in2="shape" result="effect2_innerShadow_2728_2"/>
<feColorMatrix in="SourceAlpha" type="matrix" values="0 0 0 0 0 0 0 0 0 0 0 0 0 0 0 0 0 0 127 0" result="hardAlpha"/>
<feOffset dx="-5" dy="-5"/>
<feGaussianBlur stdDeviation="5"/>
<feComposite in2="hardAlpha" operator="arithmetic" k2="-1" k3="1"/>
<feColorMatrix type="matrix" values="0 0 0 0 0.7 0 0 0 0 0.781308 0 0 0 0 1 0 0 0 0.7844 0"/>
<feBlend mode="normal" in2="effect2_innerShadow_2728_2" result="effect3_innerShadow_2728_2"/>
</filter>
<linearGradient id="paint0_linear_2728_2" x1="540" y1="0" x2="540" y2="1080.54" gradientUnits="userSpaceOnUse">
<stop stop-color="#80FFFF" stop-opacity="0.5"/>
<stop offset="0.504808" stop-color="#94B1FF" stop-opacity="0.5"/>
<stop offset="1" stop-color="#CE80FF" stop-opacity="0.5"/>
</linearGradient>
<linearGradient id="paint1_linear_2728_2" x1="236" y1="234" x2="841.627" y2="845.869" gradientUnits="userSpaceOnUse">
<stop stop-color="#00FFFF"/>
<stop offset="0.5" stop-color="#94B1FF"/>
<stop offset="1" stop-color="#9D00FF"/>
</linearGradient>
<linearGradient id="paint2_linear_2728_2" x1="236" y1="234" x2="841.627" y2="845.869" gradientUnits="userSpaceOnUse">
<stop stop-color="#00FFFF"/>
<stop offset="0.5" stop-color="#94B1FF"/>
<stop offset="1" stop-color="#9D00FF"/>
</linearGradient>
<clipPath id="clip0_2728_2">
<rect width="1081" height="1081" fill="white"/>
</clipPath>
<clipPath id="clip1_2728_2">
<rect width="1080" height="1080" fill="white" transform="translate(0 1)"/>
</clipPath>
</defs>
</svg>
